<svg width="47" height="29" viewBox="0 0 47 29" fill="none" xmlns="http://www.w3.org/2000/svg">
<path fill-rule="evenodd" clip-rule="evenodd" d="M0 14.4664C0 13.7403 0.671573 13.1516 1.5 13.1516H45.5C46.3284 13.1516 47 13.7403 47 14.4664C47 15.1926 46.3284 15.7813 45.5 15.7813H1.5C0.671573 15.7813 0 15.1926 0 14.4664Z" fill="#111111"/>
<path fill-rule="evenodd" clip-rule="evenodd" d="M0 1.31483C0 0.588671 0.671573 0 1.5 0H45.5C46.3284 0 47 0.588671 47 1.31483C47 2.041 46.3284 2.62967 45.5 2.62967H1.5C0.671573 2.62967 0 2.041 0 1.31483Z" fill="#111111"/>
<path fill-rule="evenodd" clip-rule="evenodd" d="M0 27.6181C0 26.8919 0.671573 26.3032 1.5 26.3032H45.5C46.3284 26.3032 47 26.8919 47 27.6181C47 28.3442 46.3284 28.9329 45.5 28.9329H1.5C0.671573 28.9329 0 28.3442 0 27.6181Z" fill="#111111"/>
</svg>
