<svg width="89" height="92" viewBox="0 0 89 92" fill="none" xmlns="http://www.w3.org/2000/svg">
<path fill-rule="evenodd" clip-rule="evenodd" d="M61.096 18.3288H83.6508L78.1518 9.1624L83.6508 0H58.0432V30.548H61.096V18.3288ZM12.2192 67.2055H9.16238V70.2623H12.2192V67.2055ZM24.4423 67.2055H21.3855V79.4247H24.4423V67.2055ZM15.2761 67.2055H18.3329V79.4247H15.2761V67.2055ZM28.0563 49.2917C28.002 49.4738 27.9479 49.6554 27.8821 49.8345V49.8305L24.8972 58.0392H21.2418L20.324 48.8768H28.1854C28.1389 49.0147 28.0975 49.1533 28.0563 49.2917ZM16.6446 45.9676L15.4355 58.0432H18.169L16.9639 45.9676C16.9479 45.804 16.6606 45.804 16.6446 45.9676ZM18.1133 3.67537L20.5316 6.6324C21.202 7.45446 21.8166 8.30845 22.4231 9.16643H11.1737C11.7802 8.30446 12.3988 7.45047 13.0692 6.6324L15.4875 3.67537C16.134 2.88524 17.4668 2.88524 18.1133 3.67537ZM13.2806 48.8768H5.42315C5.46968 49.0146 5.51101 49.1532 5.55226 49.2916L5.55229 49.2917C5.60655 49.4738 5.6607 49.6554 5.72644 49.8345L8.7114 58.0392H12.3668L13.2846 48.8768H13.2806ZM13.6001 45.6604L13.5841 45.82H4.48558C3.5438 42.1926 3.05296 38.4654 3.05296 34.6903C3.05296 26.7689 5.22384 18.9993 9.21044 12.2192H24.3906C28.3772 18.9993 30.5481 26.7649 30.5481 34.6903C30.5481 38.4654 30.0573 42.1926 29.1155 45.82H20.017L20.001 45.6604C19.8334 44.0083 18.4606 42.7632 16.8005 42.7632C15.1405 42.7632 13.7677 44.0083 13.6001 45.6604ZM25.9629 25.9628C25.9629 20.9028 21.8606 16.8004 16.8005 16.8004C11.7405 16.8004 7.63815 20.9028 7.63815 25.9628C7.63815 31.0229 11.7405 35.1252 16.8005 35.1252C21.8606 35.1252 25.9629 31.0229 25.9629 25.9628ZM1.1014 58.0391H5.45514L2.84928 50.876C2.68966 50.437 2.546 49.9941 2.40234 49.5511L0.0558683 56.5905C0.019953 56.7023 0 56.822 0 56.9377C0 57.5443 0.494833 58.0391 1.1014 58.0391ZM9.16238 61.096H24.4344V64.1528H9.16238V61.096ZM32.5034 58.0391C33.1099 58.0391 33.6048 57.5443 33.6048 56.9377C33.6048 56.818 33.5848 56.7023 33.5489 56.5905L31.2024 49.5551L31.1552 49.6972L31.1006 49.8618L31.1005 49.8621L31.1005 49.8622L31.1005 49.8623C30.9877 50.2027 30.8752 50.5425 30.7555 50.88L28.1496 58.0431H32.5034V58.0391ZM19.857 25.9667C19.857 27.6508 18.4882 29.0195 16.8002 29.0195C15.1122 29.0195 13.7434 27.6548 13.7434 25.9667C13.7434 24.2787 15.1122 22.9099 16.8002 22.9099C18.4882 22.9099 19.857 24.2827 19.857 25.9667ZM46.698 67.2055C47.3245 67.2055 47.8632 66.8025 48.0388 66.2039L51.6224 54.268C52.0414 52.8713 53.3024 51.9296 54.763 51.9296C56.5707 51.9296 58.0432 53.4021 58.0432 55.2098V59.5675C58.0432 60.4096 58.7296 61.0959 59.5716 61.0959C60.4136 61.0959 61.1 60.4096 61.1 59.5675V55.2098C61.1 53.4021 62.5726 51.9296 64.3803 51.9296C65.8408 51.9296 67.1019 52.8673 67.5209 54.268L71.1044 66.2039C71.284 66.8025 71.8227 67.2055 72.4453 67.2055C73.1117 67.2055 73.6903 66.7306 73.822 66.0802L74.1852 64.2724C70.1866 55.8483 66.8624 47.1089 64.2925 38.1141L63.3228 34.7141C63.1352 34.0597 62.5326 33.6048 61.8542 33.6048H57.301C56.6226 33.6048 56.02 34.0597 55.8324 34.7141L54.8627 38.1141C52.2968 47.093 48.9726 55.8443 44.974 64.2764L45.3332 66.0802C45.4649 66.7346 46.0435 67.2095 46.7099 67.2095L46.698 67.2055ZM79.8717 84.1895C80.9771 83.0841 82.4456 82.4775 84.0059 82.4775V82.4735C86.532 82.4735 88.5871 84.5287 88.5871 87.0547C88.5871 89.5808 86.532 91.6359 84.0059 91.6359H25.0689L25.4121 91.2967L32.5433 86.5439C34.5346 85.2151 37.2522 85.2151 39.2435 86.5439L40.0137 87.0587C43.0106 89.058 47.1049 89.058 50.1019 87.0587L50.8721 86.5439C52.8634 85.2151 55.581 85.2151 57.5723 86.5439L60.2499 88.3277L61.9459 85.7857L59.2683 84.0019C56.2713 82.0026 52.177 82.0026 49.18 84.0019L48.4099 84.5167C46.4186 85.8456 43.701 85.8456 41.7097 84.5167L40.9395 84.0019C37.9425 82.0026 33.8482 82.0026 30.8513 84.0019L23.5924 88.8425L22.2675 90.1235C21.2898 91.1012 19.9889 91.6399 18.5762 91.6399C16.3455 91.6399 14.3741 90.2193 13.6678 88.1042L13.1849 86.6557L10.0523 87.7012C8.28447 88.2878 6.4448 88.5871 4.5812 88.5871C2.05515 88.5871 0 86.532 0 84.0059C0 81.4799 2.05515 79.4247 4.5812 79.4327C6.66429 79.4327 8.50395 80.7616 9.1624 82.7369L9.61732 84.0937L10.7985 84.0099C11.2774 83.974 11.7483 83.8982 12.2192 83.8024L15.276 82.4855H27.4952V73.778C29.3109 73.0438 31.4977 73.2672 33.082 74.4564L34.7102 75.6736C38.3895 78.4351 43.7209 78.5947 47.5798 76.0207C48.7331 75.2545 50.0739 74.8475 51.4587 74.8475C53.3263 74.8475 55.0821 75.5738 56.403 76.8947L56.9617 77.4534L59.1206 75.2944L58.5619 74.7358C56.6624 72.8363 54.1364 71.7907 51.4547 71.7907C49.4634 71.7907 47.5359 72.3733 45.8639 73.4867C44.0402 74.7038 41.7416 75.059 39.6186 74.6001C40.7878 72.517 41.9172 70.406 42.9986 68.275C43.8047 69.4802 45.1735 70.2623 46.6899 70.2623C48.6732 70.2623 50.3892 68.9853 50.9598 67.0858L54.5434 55.146C54.6072 54.9305 54.9824 54.9863 54.9824 55.2098V59.5675C54.9824 62.0936 57.0375 64.1487 59.5636 64.1487C62.0896 64.1487 64.1448 62.0936 64.1448 59.5675V55.2098C64.1448 54.9863 64.5199 54.9305 64.5837 55.146L68.1673 67.0818C68.7379 68.9813 70.4539 70.2583 72.4372 70.2583C73.9576 70.2583 75.3264 69.4722 76.1365 68.263C78.0879 72.106 80.1829 75.8731 82.4217 79.5644C80.8853 79.8397 79.4487 80.5141 78.2475 81.5357C76.0487 78.3113 72.4212 76.3679 68.4386 76.3679C65.2621 76.3679 62.2772 77.605 60.0345 79.8477L60.0145 79.8677L62.1974 82.0066C63.8654 80.3386 66.0842 79.4207 68.4426 79.4207C71.8107 79.4207 74.8356 81.2923 76.34 84.3012L77.4773 86.5838L79.8717 84.1895Z" fill="white"/>
</svg>
