<svg width="42" height="42" viewBox="0 0 42 42" fill="none" xmlns="http://www.w3.org/2000/svg">
<path fill-rule="evenodd" clip-rule="evenodd" d="M0.820915 40.3585H12.1194V38.0617H2.60227C1.98401 38.0617 1.41407 37.78 1.03846 37.289C0.662842 36.7979 0.540375 36.174 0.702301 35.5774L3.81902 24.0932C4.05116 23.2376 4.83249 22.6401 5.71899 22.6401H24.7333C25.6198 22.6401 26.4011 23.2376 26.6332 24.0932L28.1788 29.7879V17.3297L24.9429 19.1979C23.9275 19.7841 22.7688 20.0863 21.6062 20.0862C21.0192 20.0862 20.4312 20.0092 19.8601 19.8528C19.4251 19.7337 19.169 19.2812 19.2854 18.8455C19.7445 17.1272 20.8457 15.691 22.3859 14.8016L28.0967 11.5045V4.95014C28.0967 3.17149 28.7899 1.49981 30.0513 0.240247C30.3704 -0.0789301 30.8874 -0.0801605 31.2082 0.237048C32.4628 1.47799 33.1825 3.20176 33.1825 4.96638V11.5178L38.8703 14.8017C40.4106 15.691 41.5118 17.1271 41.9719 18.8495C42.0886 19.2853 41.8314 19.7337 41.3961 19.8528C40.825 20.0092 40.2371 20.0862 39.65 20.0862C38.4875 20.0862 37.3287 19.784 36.3132 19.1979L33.1004 17.3429V24.8959C33.1004 25.3488 32.7331 25.7162 32.2801 25.7162C31.827 25.7162 31.4598 25.3488 31.4598 24.8959V16.3958L30.628 15.9156L29.8192 16.3826V40.3586H31.4598V32.2787C31.4598 31.8257 31.827 31.4584 32.2801 31.4584C32.7331 31.4584 33.1004 31.8257 33.1004 32.2787V40.3586H41.1795C41.6325 40.3586 41.9998 40.7259 41.9998 41.1789C41.9998 41.6319 41.6325 41.9992 41.1795 41.9992H0.820915C0.367867 41.9992 0.000621796 41.6319 0.000621796 41.1789C0.000621796 40.7259 0.367867 40.3585 0.820915 40.3585ZM29.4574 12.986C29.4574 13.6378 29.9878 14.1681 30.6397 14.1681C31.2915 14.1681 31.8219 13.6378 31.8219 12.986C31.8219 12.3341 31.2915 11.8038 30.6397 11.8038C29.9878 11.8038 29.4574 12.3341 29.4574 12.986ZM21.177 18.4279C22.195 18.5152 23.2318 18.2914 24.1227 17.7771L28.7671 15.0957C28.314 14.6931 27.9911 14.1474 27.87 13.5299L23.2063 16.2225C22.3082 16.741 21.6084 17.506 21.177 18.4279ZM30.6324 2.0896C30.0506 2.92294 29.7373 3.91238 29.7373 4.95014V10.3119C30.0209 10.216 30.3241 10.1632 30.6397 10.1632C30.9552 10.1632 31.2584 10.216 31.542 10.3119V4.96638C31.5419 3.93757 31.2172 2.92721 30.6324 2.0896ZM37.1336 17.7771C38.0245 18.2915 39.0619 18.5159 40.0798 18.4278C39.649 17.5073 38.9488 16.7413 38.05 16.2225L33.4072 13.5419C33.2835 14.1586 32.958 14.7029 32.503 15.1037L37.1336 17.7771ZM21.3629 36.4211L20.9622 33.4681H16.0536V36.4211H21.3629ZM27.85 36.4211C27.9911 36.4211 28.0739 36.3405 28.1106 36.2923C28.1474 36.2443 28.2036 36.1433 28.1666 36.007L27.4776 33.4681H22.6179L23.0186 36.4211H27.85ZM26.2309 28.8744H21.9946L22.3953 31.8275H27.0323L26.2309 28.8744ZM16.0537 24.2807V27.2338H20.1163L19.7156 24.2807H16.0537ZM10.7513 24.2807L10.3505 27.2338H14.4131V24.2807H10.7513ZM3.41986 31.8275H8.07151L8.47223 28.8744H4.22129L3.41986 31.8275ZM9.7272 31.8275H14.4131V28.8744H10.1279L9.7272 31.8275ZM16.0537 28.8744V31.8275H20.7396L20.3389 28.8744H16.0537ZM14.4131 33.4681H9.50457L9.10385 36.4211H14.4131V33.4681ZM2.34158 36.2923C2.37833 36.3405 2.46118 36.4211 2.60219 36.4211H7.44817L7.84888 33.4681H2.9746L2.28555 36.007C2.24864 36.1433 2.30483 36.2443 2.34158 36.2923ZM5.40235 24.5229L4.66663 27.2338H8.69493L9.09565 24.2807H5.71899C5.57125 24.2807 5.44099 24.3803 5.40235 24.5229ZM24.7333 24.2807H21.3712L21.7719 27.2338H25.7856L25.0499 24.5229C25.0112 24.3803 24.881 24.2807 24.7333 24.2807ZM28.1788 38.0344C28.0713 38.0523 27.9615 38.0617 27.85 38.0617H18.3537V40.3585H28.1788V38.0344ZM16.7131 40.3585V38.0617H13.76V40.3585H16.7131ZM9.35174 2.85266C9.35174 3.30564 9.719 3.67298 10.1721 3.67298C10.6251 3.67298 10.9924 3.30564 10.9924 2.85258V0.82032C10.9924 0.367339 10.6251 1.37698e-10 10.1721 1.37698e-10C9.719 1.37698e-10 9.35174 0.367339 9.35174 0.82032V2.85266ZM15.9281 5.57627C15.7678 5.7364 15.5579 5.81654 15.348 5.81654C15.1381 5.81654 14.9281 5.7364 14.768 5.57627C14.4476 5.25594 14.4476 4.73651 14.768 4.41609L16.205 2.97905C16.5253 2.6588 17.0448 2.6588 17.3652 2.97905C17.6855 3.29939 17.6855 3.81882 17.3652 4.13923L15.9281 5.57627ZM4.99733 5.81662C4.78741 5.81662 4.5774 5.73648 4.41728 5.57635L2.98016 4.13923C2.65982 3.8189 2.65982 3.29947 2.98016 2.97905C3.3005 2.6588 3.81992 2.6588 4.14034 2.97905L5.57746 4.41617C5.89779 4.73651 5.89779 5.25594 5.57746 5.57635C5.41716 5.73648 5.20724 5.81662 4.99733 5.81662ZM5.31392 10.1715C5.31392 12.8504 7.49335 15.0299 10.1723 15.0299C12.8512 15.0299 15.0307 12.8504 15.0306 10.1715C15.0306 7.49253 12.8512 5.3131 10.1723 5.3131C7.49335 5.3131 5.31392 7.49261 5.31392 10.1715ZM6.95456 10.1716C6.95456 8.39734 8.398 6.95382 10.1723 6.95382C11.9465 6.95382 13.39 8.39734 13.39 10.1716C13.39 11.9459 11.9465 13.3893 10.1723 13.3893C8.398 13.3893 6.95456 11.9459 6.95456 10.1716ZM4.41728 14.7668C4.73761 14.4465 5.25704 14.4465 5.57746 14.7668C5.89779 15.0871 5.89779 15.6065 5.57746 15.9269L4.14034 17.3641C3.98013 17.5242 3.77021 17.6043 3.56029 17.6043C3.35037 17.6043 3.14037 17.5242 2.98024 17.3641C2.65991 17.0437 2.65991 16.5243 2.98024 16.2039L4.41728 14.7668ZM17.3652 16.2039L15.9281 14.7668C15.6077 14.4465 15.0883 14.4465 14.768 14.7668C14.4476 15.0872 14.4476 15.6066 14.768 15.9269L16.2051 17.3641C16.3652 17.5242 16.5752 17.6043 16.7851 17.6043C16.995 17.6043 17.205 17.5242 17.3652 17.3641C17.6855 17.0436 17.6855 16.5242 17.3652 16.2039ZM3.67355 10.1717C3.67355 10.6246 3.3063 10.992 2.85323 10.992H0.820892C0.367828 10.992 0.000572205 10.6246 0.000572205 10.1717C0.000572205 9.71867 0.367828 9.35133 0.820892 9.35133H2.85323C3.3063 9.35133 3.67355 9.71867 3.67355 10.1717ZM10.9924 17.4911V19.5234C10.9924 19.9764 10.6251 20.3437 10.1721 20.3437C9.719 20.3437 9.35174 19.9764 9.35174 19.5234V17.4911C9.35174 17.0381 9.719 16.6707 10.1721 16.6707C10.6251 16.6707 10.9924 17.038 10.9924 17.4911ZM17.491 10.992H19.5234C19.9765 10.992 20.3437 10.6247 20.3437 10.1717C20.3437 9.71867 19.9765 9.35133 19.5234 9.35133H17.491C17.038 9.35133 16.6707 9.71867 16.6707 10.1717C16.6707 10.6246 17.038 10.992 17.491 10.992ZM31.7001 29.1671C31.8527 29.3205 32.0643 29.4075 32.2801 29.4075C32.4958 29.4075 32.7075 29.3206 32.86 29.1671C33.0126 29.0146 33.1004 28.803 33.1004 28.5872C33.1004 28.3715 33.0126 28.1599 32.86 28.0072C32.7075 27.8546 32.4958 27.7669 32.2801 27.7669C32.0643 27.7669 31.8527 27.8547 31.7001 28.0072C31.5475 28.1598 31.4598 28.3715 31.4598 28.5872C31.4598 28.803 31.5475 29.0146 31.7001 29.1671Z" fill="#F8F8FF"/>
</svg>
