<svg width="38" height="38" viewBox="0 0 38 38" fill="none" xmlns="http://www.w3.org/2000/svg">
<path fill-rule="evenodd" clip-rule="evenodd" d="M38 22.1079V15.892L34.1084 14.9191C33.7581 13.6173 33.242 12.3722 32.5685 11.2029L34.6327 7.76258L30.2374 3.36725L26.7971 5.43154C25.6278 4.7579 24.3827 4.24199 23.0809 3.89165L22.108 0H15.892L14.9191 3.89165C13.6173 4.24199 12.3722 4.75797 11.2029 5.43154L7.76258 3.36725L3.36732 7.76258L5.43154 11.2029C4.75797 12.3722 4.24192 13.6173 3.89157 14.9191L0 15.8921V22.108L3.89157 23.0809C4.24192 24.3827 4.75797 25.6278 5.43154 26.7971L3.36732 30.2374L7.76258 34.6328L11.2029 32.5685C12.3722 33.2421 13.6173 33.758 14.9191 34.1084L15.892 38H22.108L23.0809 34.1084C24.3827 33.758 25.6278 33.242 26.7971 32.5685L30.2374 34.6328L34.6327 30.2374L32.5685 26.7971C33.242 25.6278 33.7581 24.3827 34.1084 23.0809L38 22.1079ZM32.1734 21.5465L32.1734 21.5467C32.0149 22.3042 31.6317 24.1356 30.3208 26.1939L29.9496 26.7768L31.8181 29.8909L29.8909 31.818L26.7769 29.9495L26.1941 30.3207C24.1287 31.6361 22.2893 32.0191 21.5393 32.1753L21.5391 32.1754C21.4028 32.2037 21.3026 32.2246 21.2434 32.2423L20.3626 35.7647H17.6374L16.7567 32.2423L16.082 32.0927C13.6949 31.5631 12.1205 30.5314 11.4794 30.1113C11.363 30.035 11.2773 29.9789 11.2232 29.9496L8.10913 31.8181L6.182 29.8909L8.05049 26.7769L7.67928 26.194C6.36372 24.1284 5.98071 22.2888 5.82459 21.5389C5.79623 21.4027 5.77536 21.3025 5.75775 21.2433L2.23529 20.3627V17.6374L5.75767 16.7568L5.90729 16.0822C6.43684 13.6951 7.4685 12.1208 7.88871 11.4796L7.88872 11.4796C7.96504 11.3631 8.02118 11.2774 8.05049 11.2233L6.182 8.1092L8.10913 6.18208L11.2232 8.05056C11.2811 8.01925 11.3707 7.96069 11.4915 7.88178L11.4915 7.88177C12.1446 7.45523 13.7081 6.43409 16.082 5.90744L16.7567 5.75782L17.6374 2.23529H20.3626L21.2433 5.75767C21.3047 5.776 21.4077 5.79755 21.547 5.82668C22.3046 5.9852 24.1357 6.36835 26.1939 7.6792L26.7767 8.05041L29.8908 6.18193L31.8179 8.10905L29.9494 11.2231C29.9808 11.2811 30.0394 11.3708 30.1184 11.4918C30.5451 12.1451 31.566 13.7083 32.0926 16.082L32.2423 16.7567L35.7647 17.6373V20.3626L32.2423 21.2433C32.224 21.3046 32.2025 21.4075 32.1734 21.5465ZM20.0375 13.8268L17.9621 12.9966L15.1138 20.1176H19.5844L17.9621 24.1731L20.0375 25.0032L22.8859 17.8823H18.4153L20.0375 13.8268ZM7.82373 18.9997C7.82373 12.837 12.8375 7.82324 19.0002 7.82324C25.1629 7.82324 30.1767 12.837 30.1767 18.9996C29.617 33.8024 8.38561 33.8064 7.82373 18.9997ZM10.059 18.9997C10.059 23.9299 14.07 27.9409 19.0002 27.9409C23.9304 27.9409 27.9414 23.9299 27.9414 18.9999C27.4936 7.15757 10.5085 7.15429 10.059 18.9997Z" fill="#F8F8FF"/>
</svg>
