<svg width="47" height="47" viewBox="0 0 47 47" fill="none" xmlns="http://www.w3.org/2000/svg">
<path fill-rule="evenodd" clip-rule="evenodd" d="M0.910352 0.897078L2.10646 0L6.59185 5.98052L5.39574 6.8776L0.910352 0.897078ZM35.8963 32.8796V35.7913L37.5664 38.5745H36.1819L35.1488 40.6408L33.679 37.7014L34.4819 32.0819L19.8192 27.1936L16.9769 32.8781L20.6363 35.0737L19.3198 37.0487L21.4758 40.8217L17.0427 39.0485L18.3816 37.7103L13.7594 34.6289L15.1334 32.5678L12.2299 28.6962L10.1487 29.529L10.888 26.1291C12.899 26.5903 14.4561 26.8243 15.5394 26.8243C16.3736 26.8243 16.9306 26.6867 17.2057 26.4124C17.5055 26.1126 17.5556 25.7927 17.5443 25.5766C17.5144 24.998 17.042 24.6123 16.5845 24.2392C15.8264 23.621 15.7472 23.4348 15.8369 23.2472C16.0948 23.005 17.5242 23.091 18.3779 23.1433L18.3819 23.1435C20.4404 23.2683 22.7739 23.4098 23.3664 21.6347C23.5877 20.9694 23.4344 20.5029 23.2669 20.2285C22.8042 19.4705 21.7666 19.3113 20.7626 19.1573C19.5142 18.9651 18.9191 18.8037 18.9184 18.4052C19.1067 18.0113 21.0821 17.7609 22.1437 17.6263L22.1438 17.6263L22.1439 17.6263H22.1439L22.1439 17.6263L22.1441 17.6263C24.188 17.3676 26.1182 17.1231 26.8784 16.0115C27.1767 15.5757 27.2604 15.0487 27.1207 14.488C26.5734 12.2989 23.4163 12.4274 20.626 12.5409L20.6153 12.5413L20.6091 12.5416C19.2769 12.5962 16.807 12.6975 16.639 12.19C16.6189 12.1294 16.6181 12.0958 16.6196 12.0898C16.7549 11.7257 18.5461 11.4237 19.3108 11.2951C21.0317 11.0051 22.6577 10.7307 22.6577 9.43668C22.6577 6.99588 17.6752 6.44642 15.9296 6.44642C15.7816 6.44642 15.6096 6.44343 15.4183 6.43894C12.7031 6.38437 5.48835 6.24457 3.98051 14.5358C2.56388 22.3284 8.14146 25.1841 9.44297 25.7381L8.47338 30.1988L4.62566 31.7373L0.0131836 28.0481V46.0502H46.3622V27.6466L35.8963 32.8796ZM5.45097 14.8042C6.73081 7.76512 12.5798 7.87576 15.3884 7.93557L15.4525 7.93676H15.4526H15.4526H15.4526H15.4526H15.4527H15.4527H15.4527H15.4527H15.4527H15.4528H15.4528H15.4528H15.4528C15.6296 7.94006 15.7894 7.94304 15.9288 7.94304C18.4638 7.94304 20.8538 8.76611 21.1341 9.33202C20.7783 9.53237 19.7183 9.71103 19.0611 9.82167C17.4449 10.0938 15.9191 10.351 15.339 11.3161C15.1716 11.5942 15.0153 12.0539 15.2187 12.6647C15.7442 14.2398 18.0279 14.1456 20.675 14.0365L20.6751 14.0364L20.6976 14.0355C22.6968 13.9549 25.4171 13.8451 25.6689 14.852C25.7197 15.0561 25.6704 15.1294 25.6435 15.1683C25.2638 15.7239 23.3603 15.9655 21.9655 16.1426L21.9557 16.1438L21.9524 16.1443C19.6227 16.4394 17.4232 16.718 17.4232 18.4082C17.4232 20.1564 19.2951 20.4445 20.5338 20.6351L20.5346 20.6352C20.9936 20.7055 21.8488 20.837 21.9811 20.9866C21.9811 20.9866 21.9886 21.0366 21.9468 21.1622C21.7172 21.8493 19.8394 21.7349 18.4676 21.6511C16.6435 21.5398 15.0699 21.4441 14.5115 22.5594C13.8491 23.8849 14.9391 24.8276 15.582 25.3523C14.6258 25.3262 12.8878 25.0376 11.205 24.6631L11.6887 22.4391L16.2989 19.8047L15.5573 18.5069L12.1163 20.473L13.6682 13.3337L12.2075 13.016L11.0712 18.2422L9.0363 15.6983L7.8686 16.632L10.6623 20.1239L10.3692 21.471L10.3244 21.4971L10.3528 21.5472L9.76443 24.2549C8.39563 23.6277 4.29075 21.1832 5.45097 14.8042ZM44.8671 44.555H1.50831V31.1594L4.37224 33.45L11.7201 30.5105L13.3019 32.6194L11.6857 35.0438L16.0343 37.9428L14.3829 39.595L24.9011 43.8023L21.0766 37.1093L22.7504 34.599L18.9341 32.3092L20.5772 29.0229L32.8268 33.1053L32.1346 37.9518L35.1488 43.9839L37.1059 40.0697H40.2068L37.3915 35.3772V33.8036L44.8671 30.0657V44.555ZM31.2615 8.22322L30.0654 9.1203L34.5508 15.1008L35.7469 14.2037L31.2615 8.22322ZM1.68128 24.0905L2.84898 23.156L5.84064 26.8944L4.67294 27.8289L1.68128 24.0905ZM34.2436 5.20367L33.0759 6.13812L36.0675 9.8765L37.2352 8.94205L34.2436 5.20367ZM0.162787 9.1203L1.35889 8.22322L3.60159 11.2135L2.40548 12.1106L0.162787 9.1203ZM40.9799 14.2037L39.7837 15.1008L42.0264 18.0911L43.2225 17.194L40.9799 14.2037ZM28.5707 16.6031L29.7668 15.7061L32.0095 18.6963L30.8134 19.5934L28.5707 16.6031ZM26.7761 2.99026L25.58 3.88734L27.8227 6.8776L29.0188 5.98052L26.7761 2.99026ZM8.61159 39.9849L10.7152 39.2837L10.2428 37.8648L8.24828 38.5301L8.13016 38.0592L4.83265 36.41L4.16433 37.7482L6.84734 39.0893L7.58145 42.0265L10.0641 43.6816L10.8939 42.4376L8.89118 41.1025L8.61159 39.9849ZM30.0966 21.4027C35.1449 22.6653 42.0435 22.142 42.9114 20.836C42.948 20.7807 43.0235 20.6663 42.7738 20.3329L43.9699 19.4358C44.7384 20.4607 44.417 21.2711 44.1568 21.6621C43.2298 23.057 40.0661 23.6304 36.6565 23.6304C34.2351 23.6304 31.6897 23.3411 29.734 22.8522C28.2374 22.4784 26.2295 21.8108 26.068 20.3411C25.908 18.8878 27.7216 17.9033 28.0864 17.7209L28.4206 18.39L28.7555 19.0575C28.1215 19.3782 27.5257 19.9337 27.5534 20.1789C27.5541 20.1856 27.6498 20.7911 30.0966 21.4027ZM42.5534 24.8271C42.8898 24.1984 42.7343 23.5622 42.4989 23.2086L41.2549 24.0377C41.2549 24.0377 41.2579 24.0795 41.2355 24.1214C41.1809 24.2238 40.5671 25.1186 35.8964 25.1186C29.252 25.1186 28.4005 22.6973 28.3923 22.6726L26.948 23.0576C27.0385 23.4209 28.0634 26.6138 35.8964 26.6138C39.7859 26.6138 41.9016 26.0464 42.5534 24.8271ZM30.1782 26.6602C30.235 26.6812 35.9135 28.7586 40.0476 26.6916L40.7159 28.029C39.0952 28.8394 37.313 29.1085 35.6624 29.1085C32.5032 29.1085 29.8224 28.1232 29.6534 28.0604L30.1782 26.6602ZM33.7993 29.618L33.5063 31.084C33.7014 31.1229 34.6074 31.2911 35.6959 31.2911C36.9653 31.2911 38.4843 31.0623 39.4143 30.1316L38.3572 29.0745C37.3734 30.0606 34.6687 29.7907 33.7993 29.618ZM32.9061 16.8952C33.0623 16.8952 36.771 16.9041 39.8158 17.6651L39.4525 19.1154C36.5848 18.3985 32.9427 18.3903 32.9061 18.3903V16.8952Z" fill="#F8F8FF"/>
</svg>
