<svg width="28" height="44" viewBox="0 0 28 44" fill="none" xmlns="http://www.w3.org/2000/svg">
<path fill-rule="evenodd" clip-rule="evenodd" d="M10.3652 6.80397L10.3327 6.80371C8.90025 6.78025 7.73664 5.28003 7.68362 3.38826C7.6532 2.30286 7.99858 1.31319 8.63117 0.673126C9.06929 0.229856 9.62359 -0.00991251 10.1991 0.00031416C11.6315 0.0238613 12.7951 1.52409 12.8482 3.41576C12.8787 4.50117 12.5333 5.49083 11.9006 6.1309C11.4707 6.56575 10.9267 6.80397 10.3652 6.80397ZM10.1658 1.28922C9.94612 1.28922 9.73832 1.38676 9.54797 1.57943C9.16709 1.96478 8.9519 2.62745 8.97218 3.35217C9.00054 4.36487 9.57495 5.50209 10.3538 5.51481C10.5743 5.5185 10.7899 5.42088 10.9838 5.22468C11.3647 4.83942 11.5799 4.17666 11.5596 3.45194C11.5313 2.43933 10.9568 1.30211 10.178 1.2893L10.1658 1.28922ZM21.4474 10.0348C20.9426 10.0348 20.4686 9.86217 20.0926 9.53724C19.1095 8.68774 19.0521 7.07476 19.9619 5.86526C20.4486 5.21832 21.141 4.80307 21.8615 4.72598C22.455 4.66273 23.0214 4.83461 23.4566 5.21059C24.4398 6.06009 24.4972 7.67306 23.5874 8.88265C23.1007 9.52959 22.4084 9.94485 21.6879 10.0219C21.6071 10.0305 21.5268 10.0348 21.4474 10.0348ZM21.9986 6.00775C21.6318 6.04702 21.265 6.27751 20.992 6.64026C20.505 7.28754 20.4791 8.16755 20.9354 8.56192C21.143 8.74136 21.3844 8.75786 21.5506 8.74016C21.9175 8.70097 22.2843 8.4704 22.5571 8.10774C23.0441 7.46037 23.0701 6.58036 22.6138 6.18607C22.4457 6.04075 22.2554 6.00225 22.1011 6.00225C22.0647 6.00225 22.0303 6.0044 21.9986 6.00775ZM15.9937 7.07863C16.1618 7.12169 16.3324 7.143 16.5028 7.143C16.9158 7.143 17.3277 7.01787 17.6987 6.77484C18.409 6.30948 18.9086 5.46969 19.0697 4.47074C19.3538 2.70703 18.5064 1.051 17.1403 0.700713C16.5647 0.553243 15.9593 0.661095 15.4352 1.00451C14.7249 1.46986 14.2253 2.30965 14.0643 3.3086C13.7801 5.0724 14.6275 6.72835 15.9937 7.07863ZM15.3369 3.51365C15.439 2.88106 15.7397 2.34609 16.1416 2.08277C16.3021 1.97759 16.465 1.92482 16.6278 1.92482C16.6919 1.92482 16.7561 1.93307 16.8201 1.94948C17.5229 2.1297 17.9702 3.19043 17.797 4.26578C17.695 4.89846 17.3942 5.43334 16.9923 5.69666C16.7685 5.84318 16.5404 5.88804 16.3138 5.83003C15.611 5.64973 15.1637 4.589 15.3369 3.51365ZM26.1799 9.40819C26.709 9.49559 27.1563 9.78563 27.4395 10.225C28.0656 11.1968 27.7293 12.614 26.6738 13.4514C26.2012 13.8265 25.6453 14.0284 25.1064 14.0284C24.9918 14.0284 24.8781 14.0192 24.7659 14.0007C24.2369 13.9133 23.7896 13.6232 23.5065 13.1839C22.8803 12.2122 23.2164 10.795 24.2719 9.95751C24.8451 9.50272 25.5407 9.30231 26.1799 9.40819ZM24.9762 12.7289C25.2528 12.7745 25.5882 12.6672 25.8727 12.4416C26.3878 12.0328 26.6136 11.3234 26.3559 10.9234C26.27 10.79 26.1401 10.7082 25.9697 10.68C25.9276 10.673 25.8842 10.6696 25.8398 10.6696C25.5921 10.6696 25.3145 10.7759 25.0732 10.9673C24.558 11.376 24.3323 12.0855 24.5901 12.4856C24.6759 12.6189 24.8059 12.7007 24.9762 12.7289ZM4.45738 8.54288C6.09967 7.95815 6.88248 5.92812 6.20228 4.01762C5.52208 2.10721 3.63281 1.02843 1.99027 1.61324C0.347983 2.19788 -0.43483 4.22791 0.245372 6.13849C0.800276 7.69707 2.15974 8.70195 3.53355 8.70195C3.8437 8.70195 4.1548 8.65065 4.45738 8.54288ZM1.45977 5.70614C1.01796 4.46519 1.44988 3.17396 2.42262 2.82763C2.58668 2.76928 2.75572 2.74144 2.92562 2.74144C3.76326 2.74144 4.62058 3.41846 4.98788 4.45006C5.42969 5.69093 4.99768 6.98224 4.02494 7.32857C3.05246 7.67464 1.90149 6.947 1.45977 5.70614ZM13.9582 8.45092C15.9506 8.73202 17.6745 9.47118 19.0823 10.6477C20.7388 12.0321 21.9308 13.9855 22.6252 16.4538C23.2436 18.6518 23.445 21.2612 23.2079 23.9999L21.9236 23.8887C22.1476 21.3031 21.961 18.8528 21.3842 16.8028C20.7615 14.5895 19.7089 12.8513 18.2556 11.6367C15.9029 9.67047 12.5864 9.13078 8.38624 10.0238C10.2807 11.5243 12.6971 13.9146 14.8712 17.0526L18.1186 17.2302L18.0482 18.5174L15.754 18.3918C17.3248 20.8995 18.6996 23.8168 19.5549 27.0836L18.3078 27.41C17.9068 25.8784 17.387 24.4273 16.7851 23.063L16.098 24.5434L14.9287 24.0008L16.0666 21.549C14.6569 18.775 12.9333 16.4106 11.2477 14.5211L10.1704 18.2085L8.93306 17.847L10.2249 13.4253C9.07297 12.2469 7.97459 11.3051 7.04826 10.6217C5.21726 13.2962 4.49976 15.6272 4.85718 17.733C5.4639 21.3072 9.19122 23.8926 12.7959 26.3927C15.4759 28.2516 18.2343 30.1649 19.7597 32.5335C20.4193 30.9778 20.9588 29.3034 21.3383 27.6251L22.5956 27.9095C22.0905 30.1435 21.3484 32.2819 20.3901 34.2655L19.776 35.5366L19.2177 34.24C18.098 31.6391 15.1657 29.6053 12.0613 27.4521L12.0612 27.452C8.23755 24.7999 4.2837 22.0576 3.58632 17.9488C3.14477 15.3477 4.05614 12.5327 6.37253 9.34296L6.50608 9.15914L6.72539 9.09967C9.41182 8.371 11.8453 8.1528 13.9582 8.45092ZM13.9014 30.9347L13.0634 31.9142C15.0608 33.6234 16.3967 35.3191 17.0341 36.9544C17.7393 38.764 17.6042 40.4829 16.6195 42.1881C15.3555 40.849 14.2811 39.1066 13.5111 37.4154L14.8125 36.364L14.0023 35.3612L12.9964 36.174C12.7359 35.4772 12.5348 34.8101 12.4036 34.2085L11.1442 34.4833C11.4241 35.7663 11.9974 37.326 12.7896 38.8676L11.4383 38.9718L11.5374 40.2571L13.4782 40.1073C14.0296 41.0275 14.6549 41.9114 15.3375 42.6925C13.4981 42.7835 12.1323 42.4472 11.1878 41.6713C9.36878 40.1768 9.18822 37.0995 8.9971 33.8415C8.89388 32.082 8.78792 30.2775 8.42011 28.6051C9.45042 29.2421 10.7631 30.0875 12.0872 31.1185L12.8792 30.1014C11.1558 28.7595 9.47044 27.733 8.35531 27.0538C8.09242 26.8937 7.86546 26.7554 7.68877 26.6436L6.08473 25.6282L6.73898 27.4103C7.44075 29.3219 7.57782 31.6579 7.71034 33.917L7.71036 33.9173C7.9185 37.4646 8.11509 40.8151 10.3695 42.6673C11.4521 43.5567 12.9033 43.9968 14.7737 43.9968C15.4069 43.9968 16.0882 43.9464 16.8194 43.8458L17.097 43.8077L17.2584 43.5787C18.8569 41.3111 19.1855 38.9248 18.2351 36.4862C17.52 34.6512 16.0619 32.7834 13.9014 30.9347ZM17.4318 12.6598H16.1427V13.9489H17.4318V12.6598ZM13.5645 11.3707H14.8536V12.6598H13.5645V11.3707ZM21.8093 25.1298L21.594 26.4009L22.8651 26.6161L23.0803 25.3451L21.8093 25.1298Z" fill="#F8F8FF"/>
</svg>
