<svg width="48" height="49" viewBox="0 0 48 49" fill="none" xmlns="http://www.w3.org/2000/svg">
<path fill-rule="evenodd" clip-rule="evenodd" d="M47.2023 22.4018H45.5461C45.398 20.4269 44.9836 18.4811 44.314 16.6173C43.2345 13.6494 41.5173 10.9543 39.2835 8.7219C37.0497 6.48947 34.3536 4.77398 31.385 3.69629L30.841 5.20041C34.5799 6.54616 37.8309 8.97931 40.1762 12.1871C42.5215 15.395 43.8538 19.2309 44.002 23.2018C44.002 23.414 44.0863 23.6175 44.2363 23.7675C44.3864 23.9176 44.5899 24.0019 44.8021 24.0019H45.6021L42.4019 28.2662L40.5377 25.786L40.4897 25.714L39.2016 24.0019H40.0017C40.1095 24.0015 40.216 23.9793 40.315 23.9367C40.414 23.8941 40.5034 23.8319 40.5777 23.7539C40.7207 23.6055 40.8009 23.4078 40.8018 23.2018C40.7139 21.2468 40.2777 19.3231 39.5137 17.5214C37.8038 13.4591 34.5737 10.2261 30.5129 8.51267C29.7345 8.18502 28.9321 7.91755 28.1128 7.7126L30.0809 6.24049C30.1803 6.16597 30.2609 6.06933 30.3165 5.95824C30.372 5.84715 30.4009 5.72465 30.4009 5.60044C30.4009 5.47623 30.372 5.35373 30.3165 5.24264C30.2609 5.13155 30.1803 5.03491 30.0809 4.96039L23.6804 0.160013C23.5615 0.0708642 23.4202 0.0165766 23.2722 0.00323319C23.1242 -0.0101102 22.9755 0.0180176 22.8426 0.0844651C22.7097 0.150913 22.5979 0.253054 22.5198 0.379445C22.4417 0.505836 22.4003 0.651482 22.4003 0.800063V2.45619C20.4254 2.6043 18.4797 3.01875 16.6159 3.68829C13.648 4.76782 10.9529 6.48497 8.72046 8.71879C6.48802 10.9526 4.77253 13.6488 3.69484 16.6173L5.19896 17.1613C6.54471 13.4224 8.97786 10.1714 12.1857 7.82614C15.3935 5.48087 19.2294 4.14851 23.2004 4.00031C23.4126 4.00031 23.6161 3.91602 23.7661 3.76598C23.9161 3.61594 24.0004 3.41244 24.0004 3.20025V2.40019L28.2648 5.60044L25.7846 7.46459L25.7126 7.51259L24.0004 8.80069V8.00063C24 7.89286 23.9778 7.78628 23.9352 7.68729C23.8926 7.5883 23.8304 7.49894 23.7524 7.42458C23.6041 7.28163 23.4064 7.20138 23.2004 7.20056C21.2453 7.28843 19.3217 7.72464 17.5199 8.48867C13.4576 10.1985 10.2247 13.4286 8.51122 17.4894C8.18358 18.2678 7.9161 19.0702 7.71116 19.8896L6.23904 17.9214C6.16452 17.822 6.06788 17.7414 5.95679 17.6858C5.8457 17.6303 5.7232 17.6014 5.59899 17.6014C5.47479 17.6014 5.35229 17.6303 5.24119 17.6858C5.1301 17.7414 5.03347 17.822 4.95894 17.9214L0.158567 24.3219C0.0695497 24.4413 0.0156449 24.5833 0.00292328 24.7317C-0.00979832 24.8801 0.0191684 25.0291 0.0865617 25.162C0.153047 25.2939 0.254769 25.4049 0.380452 25.4825C0.506136 25.5602 0.650872 25.6016 0.798618 25.602H2.45475C2.60285 27.5769 3.01731 29.5227 3.68684 31.3865C4.76637 34.3543 6.48352 37.0494 8.71734 39.2819C10.9512 41.5143 13.6473 43.2298 16.6159 44.3075L17.1599 42.8034C13.421 41.4576 10.17 39.0245 7.8247 35.8166C5.47942 32.6088 4.14706 28.7729 3.99887 24.8019C3.99887 24.5898 3.91458 24.3863 3.76453 24.2362C3.61449 24.0862 3.411 24.0019 3.19881 24.0019H2.39874L5.59899 19.7375L7.46314 22.2177L7.51114 22.2897L8.79924 24.0019H7.99918C7.89141 24.0023 7.78483 24.0245 7.68584 24.0671C7.58686 24.1097 7.4975 24.1719 7.42314 24.2499C7.34749 24.3282 7.2886 24.421 7.25008 24.5228C7.21157 24.6246 7.19422 24.7332 7.19912 24.8419C7.28699 26.797 7.7232 28.7207 8.48722 30.5224C10.2056 34.5696 13.4346 37.7871 17.4879 39.4911C18.2664 39.8187 19.0688 40.0862 19.8881 40.2912L17.92 41.7633C17.8206 41.8378 17.7399 41.9344 17.6844 42.0455C17.6289 42.1566 17.5999 42.2791 17.5999 42.4033C17.5999 42.5275 17.6289 42.65 17.6844 42.7611C17.7399 42.8722 17.8206 42.9688 17.92 43.0434L24.3205 47.8438C24.4399 47.9328 24.5818 47.9867 24.7302 47.9994C24.8787 48.0121 25.0277 47.9832 25.1605 47.9158C25.2925 47.8493 25.4034 47.7476 25.4811 47.6219C25.5588 47.4962 25.6001 47.3514 25.6006 47.2037V45.5476C27.5754 45.3995 29.5212 44.985 31.385 44.3155C34.3529 43.2359 37.048 41.5188 39.2804 39.285C41.5129 37.0512 43.2283 34.355 44.306 31.3865L42.8019 30.8424C41.4562 34.5813 39.023 37.8323 35.8152 40.1776C32.6074 42.5229 28.7715 43.8553 24.8005 44.0034C24.5883 44.0034 24.3848 44.0877 24.2348 44.2378C24.0847 44.3878 24.0004 44.5913 24.0004 44.8035V45.6036L19.7361 42.4033L22.2163 40.5392L22.2883 40.4912L24.0004 39.2031V40.0031C24.0008 40.1109 24.023 40.2175 24.0656 40.3165C24.1083 40.4155 24.1704 40.5048 24.2485 40.5792C24.3267 40.6548 24.4196 40.7137 24.5214 40.7522C24.6232 40.7908 24.7318 40.8081 24.8405 40.8032C26.7956 40.7153 28.7192 40.2791 30.5209 39.5151C34.5681 37.7967 37.7857 34.5677 39.4897 30.5144C39.8173 29.736 40.0848 28.9335 40.2897 28.1142L41.7618 30.0824C41.8364 30.1817 41.933 30.2624 42.0441 30.3179C42.1552 30.3735 42.2777 30.4024 42.4019 30.4024C42.5261 30.4024 42.6486 30.3735 42.7597 30.3179C42.8708 30.2624 42.9674 30.1817 43.0419 30.0824L47.8423 23.6819C47.9313 23.5624 47.9852 23.4205 47.9979 23.2721C48.0107 23.1237 47.9817 22.9746 47.9143 22.8418C47.8478 22.7098 47.7461 22.5989 47.6204 22.5212C47.4947 22.4436 47.35 22.4022 47.2023 22.4018ZM29.8969 38.019C28.5278 38.5975 27.0795 38.967 25.6006 39.1151V37.6029C25.6001 37.4552 25.5588 37.3105 25.4811 37.1848C25.4034 37.0591 25.2925 36.9574 25.1605 36.8909C25.0277 36.8235 24.8787 36.7945 24.7302 36.8073C24.5818 36.82 24.4399 36.8739 24.3205 36.9629L21.6002 39.0031C20.4021 38.8169 19.2308 38.4865 18.112 38.019C14.4516 36.4691 11.5369 33.5572 9.98334 29.8983C9.40478 28.5292 9.0353 27.0809 8.88725 25.602H10.3994C10.5471 25.6016 10.6919 25.5602 10.8175 25.4825C10.9432 25.4049 11.0449 25.2939 11.1114 25.162C11.1788 25.0291 11.2078 24.8801 11.1951 24.7317C11.1823 24.5833 11.1284 24.4413 11.0394 24.3219L8.99926 21.6017C9.1854 20.4035 9.51583 19.2322 9.98334 18.1134C11.5333 14.453 14.4451 11.5383 18.104 9.98478C19.4731 9.40623 20.9214 9.03674 22.4003 8.8887V10.4008C22.4008 10.5486 22.4421 10.6933 22.5198 10.819C22.5974 10.9447 22.7084 11.0464 22.8403 11.1129C22.9732 11.1803 23.1222 11.2092 23.2706 11.1965C23.4191 11.1838 23.561 11.1299 23.6804 11.0409L26.4006 9.00071C27.5988 9.18685 28.7701 9.51728 29.8889 9.98478C33.5493 11.5347 36.464 14.4466 38.0175 18.1054C38.5961 19.4745 38.9656 20.9228 39.1136 22.4018H37.6015C37.4538 22.4022 37.309 22.4436 37.1833 22.5212C37.0577 22.5989 36.9559 22.7098 36.8894 22.8418C36.8221 22.9746 36.7931 23.1237 36.8058 23.2721C36.8185 23.4205 36.8724 23.5624 36.9615 23.6819L39.0016 26.4021C38.8155 27.6003 38.485 28.7715 38.0175 29.8903C36.4676 33.5507 33.5558 36.4655 29.8969 38.019ZM30.4008 14.4008H28.8006V13.0647C28.8203 12.5946 28.6543 12.1356 28.3385 11.7868C28.0226 11.438 27.5823 11.2275 27.1125 11.2006H20.888C20.4183 11.2275 19.9779 11.438 19.6621 11.7868C19.3462 12.1356 19.1802 12.5946 19.1999 13.0647V14.4008H17.5998C16.5388 14.4008 15.5213 14.8223 14.7711 15.5725C14.0209 16.3227 13.5994 17.3402 13.5994 18.4011C13.5994 18.6133 13.6837 18.8168 13.8338 18.9669C13.9838 19.1169 14.1873 19.2012 14.3995 19.2012H15.2716L16.7357 35.3465C16.7717 35.7454 16.9561 36.1163 17.2524 36.3859C17.5486 36.6555 17.9353 36.8042 18.3358 36.8026H29.6727C30.0733 36.8042 30.4599 36.6555 30.7561 36.3859C31.0524 36.1163 31.2368 35.7454 31.2728 35.3465L32.7289 19.2012H33.601C33.8132 19.2012 34.0167 19.1169 34.1667 18.9669C34.3168 18.8168 34.4011 18.6133 34.4011 18.4011C34.4011 17.3402 33.9796 16.3227 33.2294 15.5725C32.4792 14.8223 31.4617 14.4008 30.4008 14.4008ZM20.8 13.0647C20.7975 12.9691 20.8287 12.8757 20.888 12.8007H27.0965C27.133 12.8337 27.1613 12.8748 27.1794 12.9205C27.1974 12.9663 27.2046 13.0157 27.2005 13.0647V14.4008H20.8V13.0647ZM17.5998 16.0009H30.4008C30.8973 16.0007 31.3817 16.1544 31.7873 16.441C32.1928 16.7276 32.4994 17.1329 32.6649 17.6011H15.3356C15.5011 17.1329 15.8078 16.7276 16.2133 16.441C16.6188 16.1544 17.1032 16.0007 17.5998 16.0009ZM29.6727 35.2024H18.3278L16.8797 19.2012H31.1208L29.6727 35.2024ZM24.8 29.602H26.5602L25.8241 28.4259L27.1842 27.5778L28.6803 29.978C28.7561 30.0992 28.798 30.2385 28.8017 30.3814C28.8053 30.5243 28.7707 30.6656 28.7012 30.7906C28.6318 30.9155 28.5302 31.0196 28.4069 31.092C28.2836 31.1644 28.1432 31.2024 28.0003 31.2021H24.8V29.602ZM20.0001 31.2021H23.2003V29.602H21.4482L22.1842 28.4259L20.8001 27.5778L19.296 29.978C19.219 30.1009 19.177 30.2425 19.1743 30.3875C19.1716 30.5326 19.2083 30.6756 19.2807 30.8013C19.353 30.9271 19.4581 31.0308 19.5848 31.1014C19.7116 31.172 19.8551 31.2068 20.0001 31.2021ZM24.8005 26.8258L24.0005 25.5137L23.2004 26.8258L21.8243 25.9777L23.3204 23.5775C23.3925 23.4622 23.4927 23.3672 23.6117 23.3014C23.7307 23.2356 23.8645 23.2012 24.0005 23.2015C24.1324 23.2052 24.2613 23.2415 24.3757 23.3071C24.4902 23.3727 24.5867 23.4656 24.6565 23.5775L26.1606 25.9777L24.8005 26.8258Z" fill="#F8F8FF"/>
</svg>
