<svg width="224" height="88" viewBox="0 0 224 88" fill="none" xmlns="http://www.w3.org/2000/svg">
<path fill-rule="evenodd" clip-rule="evenodd" d="M129.305 67.0628H136.892C137.27 66.7749 137.27 66.0289 137.452 65.741C137.634 65.2699 137.83 64.7987 137.921 64.3276C138.298 63.2937 140.55 56.3181 140.823 55.8469L142.046 67.0628H144.767L148.046 62.443C148.606 61.6839 149.166 60.8463 149.738 60.0872C150.116 59.5245 151.053 58.2026 151.43 57.8231L148.996 66.9581H157.339C157.625 66.487 157.899 65.0736 158.094 64.5108C158.38 63.6601 158.563 62.9141 158.849 62.0634L161.946 52.1693C162.233 51.3186 163.443 47.6411 163.443 47.1699H155.296C154.176 48.4001 151.639 51.6982 150.324 53.2948C149.478 54.3288 148.632 55.2711 147.89 56.4097L145.456 59.5245L145.274 58.111C144.988 54.813 144.806 50.481 144.428 47.3662H135.812L129.435 67.1545V66.9712L129.344 67.0628H129.305Z" fill="#3B42F8"/>
<path fill-rule="evenodd" clip-rule="evenodd" d="M86.3026 67.0629H93.513C93.8904 66.6833 96.3242 60.0873 96.7017 58.9617C96.988 58.2027 97.4566 56.7892 97.821 56.2265L98.3806 66.9713H106.255L112.997 47.2747H105.786C105.227 49.0676 104.472 51.0438 103.821 52.7452L102.324 56.8939C102.142 57.2735 101.947 57.9278 101.765 58.2158L101.01 47.2877H92.667L86.1074 67.076H86.2896L86.3026 67.0629Z" fill="#3B42F8"/>
<path fill-rule="evenodd" clip-rule="evenodd" d="M180.194 67.0629H187.508L190.606 59.0534C190.788 58.6739 190.983 58.1111 191.074 57.7316C191.165 57.4436 191.256 57.352 191.361 57.0772C191.452 56.6977 191.543 56.606 191.738 56.4228L192.298 67.1676H200.172L205.976 49.9184C206.263 49.264 206.731 48.0338 206.822 47.3794H199.612C199.235 48.7928 195.773 58.1242 195.682 58.3074L194.927 47.3794H186.584L180.024 67.1676H180.311L180.22 67.076L180.194 67.0629Z" fill="#3B42F8"/>
<path fill-rule="evenodd" clip-rule="evenodd" d="M39.8264 55.6639C39.8264 55.1011 40.9457 51.6068 41.141 50.6645C43.1973 50.6645 44.9804 50.6645 45.6442 52.2612C46.0216 53.0202 45.7353 54.0541 45.3578 54.7085C44.9804 55.5592 44.4207 55.6508 43.3014 55.6508H39.8394L39.8264 55.6639ZM28.0218 67.0631H35.6096L38.603 59.5247H39.9175C40.2039 60.6502 40.6724 62.1684 40.9457 63.2939L41.7917 66.1208C41.9739 66.5003 41.8828 66.9715 42.1691 67.0631H48.6376C48.4554 65.558 46.9457 60.467 46.9457 59.6163C49.5747 59.6163 51.54 59.0536 52.5682 56.2267C52.9456 55.1928 53.1278 53.583 52.9456 52.2743C52.6593 50.7692 52.0996 50.0101 51.3578 49.1594C49.5747 47.2748 46.5812 47.2748 44.1474 47.2748C42.2733 47.2748 36.3644 47.1832 34.9588 47.2748L27.9307 66.9715V67.0631H28.0218Z" fill="#3B42F8"/>
<path fill-rule="evenodd" clip-rule="evenodd" d="M66.1552 53.9756L66.5327 60.2837H61.9384C62.0295 59.8126 62.6932 59.0535 62.9666 58.5823L65.1271 55.4675C65.5045 54.9964 65.8819 54.342 66.1552 53.8709V53.9625V53.9756ZM50.0426 67.1677H57.2529C57.5393 67.0761 58.4764 65.571 58.7497 65.2831C59.1271 64.6287 59.7779 63.7781 60.2464 63.3069H66.6238L66.806 67.1677L70.6454 67.2593L69.3309 47.5627C68.7713 47.2748 63.331 47.4711 62.2117 47.4711L51.5263 64.7204C51.1489 65.2831 50.1207 66.7882 49.9385 67.2593L50.0296 67.1677H50.0426Z" fill="#3B42F8"/>
<path fill-rule="evenodd" clip-rule="evenodd" d="M119.465 60.2838C119.557 60.1006 123.305 54.2505 123.773 53.9757L124.151 60.2838H119.465ZM107.57 67.1678H114.975L116.29 65.2832C116.667 64.7205 117.227 63.8698 117.695 63.307H124.073C124.255 64.0661 124.164 66.3171 124.255 67.1678H128.094L126.78 47.4712C126.689 47.4712 126.689 47.3796 126.689 47.4712L126.311 47.3796C125.374 47.288 119.752 47.3796 119.752 47.3796L109.066 64.6288C108.78 65.0084 108.598 65.4795 108.312 65.7544C108.025 66.1339 107.752 66.605 107.557 67.0762V67.1678H107.57Z" fill="#3B42F8"/>
<path fill-rule="evenodd" clip-rule="evenodd" d="M170.068 60.2837C170.355 59.6294 171.76 57.8364 172.229 57.0773C172.606 56.6062 174.103 54.1588 174.48 53.9625L174.858 60.2706H170.081L170.068 60.2837ZM158.172 67.063H165.018C165.773 67.063 165.773 66.6835 166.047 66.304L167.543 64.1314C167.921 63.6603 168.103 63.0975 168.572 63.0975C170.068 63.0975 173.439 63.0059 174.754 63.0975L174.845 66.9583H178.775L177.461 47.2617H170.342C169.496 48.7668 165.188 55.5592 164.251 57.1558C163.964 57.5354 158.342 66.5788 158.159 67.0499L158.068 67.1416L158.159 67.0499L158.172 67.063Z" fill="#3B42F8"/>
<path fill-rule="evenodd" clip-rule="evenodd" d="M72.0517 53.1248H76.5549L71.8695 67.0761H79.275C79.5614 66.9845 79.5614 66.7881 79.6525 66.317L81.7088 60.1921C82.5548 57.8363 83.2056 55.4806 84.0516 53.1248H88.9192C89.2055 52.7453 90.7934 47.759 90.7934 47.2878H73.9258C73.7436 47.3795 73.8347 47.3795 73.6395 47.5758L73.2621 48.7013C73.0799 49.1724 72.8846 49.7352 72.7935 50.2063C72.4161 51.1486 72.1428 52.1825 71.8564 53.1248H72.0387H72.0517Z" fill="#3B42F8"/>
<path fill-rule="evenodd" clip-rule="evenodd" d="M201.837 67.1547H209.516L216.258 47.3665H208.67C208.293 47.6544 208.293 48.1255 208.202 48.4004C207.356 50.8477 202.019 66.304 201.824 67.0631V67.1547H201.837Z" fill="#3B42F8"/>
<path fill-rule="evenodd" clip-rule="evenodd" d="M0.182211 42.5633L21.1755 42.6549C21.5529 42.1837 23.6093 37.3806 23.6093 37.0011C19.861 36.8179 15.7352 37.0011 11.8047 37.0011C10.1127 37.0011 0.845979 36.9095 0 37.0927V42.6549L0.0911054 42.5633H0.182211Z" fill="#3B42F8"/>
<path fill-rule="evenodd" clip-rule="evenodd" d="M28.8545 76.7738V87.7019H31.015V78.5668C31.4835 79.3259 32.8892 86.5763 33.4488 87.7019H35.7004C36.0778 86.9428 37.5746 79.784 38.1342 78.5668C38.3164 81.6816 38.1342 84.6917 38.2253 87.7019H40.3858C40.4769 84.1159 40.4769 79.5091 40.3858 75.8315H36.8197L34.7633 83.8411L32.6028 75.9232H29.0367V76.8655L28.9456 76.7738H28.8545Z" fill="#3B42F8"/>
<path fill-rule="evenodd" clip-rule="evenodd" d="M34.7634 42.5632H50.2253V36.9094H31.9521C32.0433 37.289 34.386 42.0004 34.8545 42.5632H34.7634Z" fill="#3B42F8"/>
<path fill-rule="evenodd" clip-rule="evenodd" d="M141.109 85.7257V82.6108C142.892 82.6108 146.081 82.1397 146.263 84.1159C146.354 86.2884 143.452 85.8173 141.2 85.8173H141.109V85.7257ZM141.109 80.543V77.8077H144.103C145.131 77.8077 145.795 78.1873 145.795 79.1296C145.795 81.0142 142.697 80.543 141.2 80.543H141.109ZM138.675 87.6102C141.018 87.7019 146.081 87.9898 147.395 86.8512C148.046 86.2884 148.801 85.0582 148.424 83.6447C148.241 82.9904 148.046 82.6108 147.669 82.2313C146.823 81.3806 146.732 81.7602 146.354 81.3806C147.005 80.9095 147.382 80.8179 147.76 79.8756C148.137 79.0249 148.046 78.1742 147.578 77.4282C146.732 75.9232 145.235 75.8315 143.074 75.8315H138.571V87.6102H138.662H138.675Z" fill="#3B42F8"/>
<path fill-rule="evenodd" clip-rule="evenodd" d="M106.255 85.7258C103.626 87.2308 101.569 84.0244 104.563 82.3361C104.94 82.5193 106.619 84.7835 106.905 85.163L106.15 85.7258H106.242H106.255ZM105.5 79.8888C105.213 79.5092 104.563 78.9465 104.472 78.3837C104.289 77.6246 104.94 77.2582 105.786 77.3498C107.478 77.4414 106.905 79.4176 105.5 79.8888ZM103.443 80.9227C100.723 82.3361 99.9813 84.8751 101.66 86.7597C102.311 87.5188 103.534 87.9899 105.031 87.9899C106.723 87.9899 107.465 87.5188 108.493 86.7597C108.962 87.1392 109.808 87.7936 110.458 87.9899L111.773 86.2885C111.396 85.909 110.55 85.5295 109.99 84.9667C110.081 84.5872 110.367 84.2076 110.458 83.8412C110.641 83.4616 110.836 82.8989 110.836 82.5193L108.78 82.1398C108.688 82.4277 108.688 82.5193 108.597 82.7942C108.597 82.8858 108.506 83.0821 108.506 83.1737L108.129 83.3569L106.632 81.3807C107.101 80.7264 108.793 80.3468 108.688 78.3706C108.597 75.3605 103.626 75.0726 102.415 77.3367C102.038 77.9911 102.038 78.8418 102.324 79.5092C102.61 80.1767 102.975 80.5431 103.352 81.1059L103.443 80.9227Z" fill="#3B42F8"/>
<path fill-rule="evenodd" clip-rule="evenodd" d="M199.586 77.8077C203.243 77.6245 204.74 77.991 204.74 81.7602C204.74 85.7126 203.335 85.7126 199.586 85.621V77.7947V77.8077ZM197.152 87.7019C198.74 87.7935 202.684 87.8851 203.998 87.3223C207.929 85.8173 207.747 79.496 205.69 77.245C204.571 76.0148 203.348 75.8315 201.187 75.8315H197.256V87.7019H197.165H197.152Z" fill="#3B42F8"/>
<path fill-rule="evenodd" clip-rule="evenodd" d="M17.2454 30.418H26.6162L27.4622 28.5334L28.4904 30.3264H35.6096C35.5185 29.8552 33.8266 26.6488 33.358 25.9028H19.5881C19.2107 26.6619 17.3365 29.8552 17.2454 30.3264L17.1543 30.418H17.2454Z" fill="#3B42F8"/>
<path fill-rule="evenodd" clip-rule="evenodd" d="M150.676 87.702H159.669V85.7258C157.886 85.6342 155.075 85.7258 153.11 85.7258C153.018 85.0714 153.018 83.2784 153.11 82.5194H159.018V80.6348C157.326 80.5431 154.984 80.6348 153.11 80.6348V77.9911H159.487V76.0149H150.767V87.7936L150.676 87.702Z" fill="#3B42F8"/>
<path fill-rule="evenodd" clip-rule="evenodd" d="M42.7285 86.7596V87.6102L51.7219 87.7018V85.7256H45.1623V82.5192C46.2816 82.336 49.4703 82.5192 51.0712 82.4276V80.543C49.5744 80.2551 46.4769 80.8309 45.1623 80.4514V77.9124C45.8131 77.7292 50.4074 77.8208 51.6308 77.8208V75.9362C49.3792 75.9362 44.7849 75.8446 42.8196 75.9362V86.8642L42.7285 86.7726V86.7596Z" fill="#3B42F8"/>
<path fill-rule="evenodd" clip-rule="evenodd" d="M163.417 83.6449L161.165 83.8281C161.256 85.15 161.92 86.2755 162.662 86.9429C163.508 87.702 164.913 87.8852 166.41 87.8852C169.508 87.8852 171.382 85.909 170.718 83.2654C169.781 79.5878 163.781 80.818 163.872 78.7371C163.872 78.0827 164.523 77.7948 165.187 77.7032C167.061 77.3237 167.712 77.9911 168.18 79.4046L170.523 79.313C170.809 78.0827 169.677 76.8656 168.935 76.3945C167.347 75.3606 163.599 75.3605 162.193 77.4284C161.438 78.4623 161.542 79.8757 162.284 80.9096C163.69 82.8858 167.907 82.611 168.375 83.9197C169.221 85.8043 165.655 86.8382 164.25 85.4248C163.781 84.9536 163.781 84.4825 163.495 83.8281V83.9197L163.404 83.6318L163.417 83.6449Z" fill="#3B42F8"/>
<path fill-rule="evenodd" clip-rule="evenodd" d="M87.3313 83.6448L84.9886 83.8281C84.8064 84.862 85.9257 86.4717 86.3942 86.8382C88.828 88.906 95.5829 88.0684 94.4506 83.3569C93.6046 79.5877 87.5135 80.9096 87.6046 78.737C87.6957 77.5068 90.0385 77.4152 90.8844 77.8864C91.2619 78.1743 91.4441 78.3575 91.6393 78.8287L91.9256 79.2998L94.1772 79.2082C94.3594 77.978 93.3313 76.7608 92.5894 76.2897C90.8974 75.2558 87.1491 75.1642 85.8476 77.3236C85.1968 78.3575 85.288 79.8626 86.0298 80.8049C87.8129 82.9774 91.6523 82.3099 92.1209 83.9197C92.8757 86.0922 87.7218 87.2177 87.2532 83.6317L87.3443 83.7234V83.6317L87.3313 83.6448Z" fill="#3B42F8"/>
<path fill-rule="evenodd" clip-rule="evenodd" d="M0.182617 34.3706V35.784L24.2605 35.8756C24.5468 35.4045 26.0435 32.0148 26.1346 31.5437H16.6727C16.3864 31.8316 15.2671 33.9911 15.0849 34.3706L0.182617 34.4622V34.3706Z" fill="#3B42F8"/>
<path fill-rule="evenodd" clip-rule="evenodd" d="M68.1208 78.6584L69.8127 82.9903H66.624L68.2119 78.5668V78.6584H68.1208ZM62.316 87.7018H64.7499L65.778 84.9665H70.5546C70.7368 85.3461 71.4005 87.4139 71.5828 87.6102H74.0166L69.3312 75.7399C66.611 75.5566 66.8062 75.6483 66.5199 76.3942L62.2119 87.6102V87.7018H62.303H62.316Z" fill="#3B42F8"/>
<path fill-rule="evenodd" clip-rule="evenodd" d="M126.688 78.8416C126.688 80.9094 126.311 85.0581 127.626 86.4716C129.317 88.4478 134.094 88.3562 135.5 86.2884C136.255 85.1628 136.255 83.4615 136.255 81.8648V75.8315C135.604 75.7399 134.563 75.8315 133.821 75.8315V82.8987C133.821 84.7833 133.534 85.9088 131.478 85.9088C128.953 85.9088 129.044 83.841 129.044 82.1396V75.9231H126.61V78.8416H126.701H126.688Z" fill="#3B42F8"/>
<path fill-rule="evenodd" clip-rule="evenodd" d="M31.3014 35.8756H50.2253V34.6454H37.7569L36.169 31.6353H29.0498C29.1409 32.0148 31.0151 35.5877 31.3014 35.9672V35.8756Z" fill="#3B42F8"/>
<path fill-rule="evenodd" clip-rule="evenodd" d="M52.9453 77.8077H56.5114C56.6025 80.7262 56.4203 85.3461 56.5114 87.7019H58.9453C59.1275 85.3461 58.8541 80.6346 58.9453 77.8077H62.4073V75.8315H53.0364V77.8077H52.9453Z" fill="#3B42F8"/>
<path fill-rule="evenodd" clip-rule="evenodd" d="M116.94 76.3943V77.8077H120.507V87.7019H122.849C123.031 85.0582 122.849 80.8179 122.849 77.8077C123.409 77.6245 125.661 77.7161 126.415 77.7161V75.8315H117.045V76.3943H116.953H116.94Z" fill="#3B42F8"/>
<path fill-rule="evenodd" clip-rule="evenodd" d="M186.753 77.8078H190.319C190.501 79.6008 190.319 85.1629 190.319 87.7019H192.662C192.753 84.4955 192.571 80.9226 192.662 77.8078H196.228V75.9232C195.473 75.8316 188.731 75.8316 186.857 75.9232V77.8078H186.766H186.753Z" fill="#3B42F8"/>
<path fill-rule="evenodd" clip-rule="evenodd" d="M177.474 87.7018H185.816V85.7256H179.907V76.0147L177.474 75.9231V87.7018Z" fill="#3B42F8"/>
<path fill-rule="evenodd" clip-rule="evenodd" d="M20.1471 24.9475H32.7066C32.5244 24.4763 32.0558 23.6256 31.7695 23.1545C31.3921 22.5917 31.1187 21.9243 30.7413 21.3615H23.531C21.5657 21.3615 22.0342 21.1783 21.1883 22.6833C20.8108 23.3377 20.1601 24.3847 19.9648 25.1307L20.0559 25.0391L20.1471 24.9475Z" fill="#3B42F8"/>
<path fill-rule="evenodd" clip-rule="evenodd" d="M75.5264 87.702H83.869V85.7258H77.9602C77.778 85.163 77.9602 77.3367 77.8691 76.0149H75.5264V87.702Z" fill="#3B42F8"/>
<path fill-rule="evenodd" clip-rule="evenodd" d="M43.1062 20.0528C44.1344 20.236 53.5964 20.1444 55.4705 20.1444C56.2254 20.1444 56.7851 19.1105 57.1625 18.731C57.5399 18.3514 58.2818 17.4091 58.477 16.938H48.924C47.8047 16.938 47.9869 16.938 47.232 17.4091L43.6659 19.477C42.8199 19.8565 43.1062 19.6602 43.1062 20.0397V20.0528Z" fill="#3B42F8"/>
<path fill-rule="evenodd" clip-rule="evenodd" d="M27.5527 11.2842H41.4268C42.5461 11.2842 42.455 11.4675 43.1187 10.6299C43.4051 10.2503 43.8736 9.50435 43.8736 9.0332H28.7892L27.6699 11.2057V11.2973H27.5788L27.5527 11.2842Z" fill="#3B42F8"/>
<path fill-rule="evenodd" clip-rule="evenodd" d="M29.427 7.89464H44.2382C44.3293 7.51511 44.6156 5.82683 44.1471 5.72213H31.4964C30.3771 5.72213 30.5594 5.5389 30.0908 6.4812C29.8045 6.86074 29.5312 7.51511 29.3359 7.89464H29.427Z" fill="#3B42F8"/>
<path fill-rule="evenodd" clip-rule="evenodd" d="M25.1058 15.8126H35.2315C35.5178 15.2498 36.2597 13.1689 36.2597 12.6978H26.6025L25.0146 15.8126V15.9042L25.1058 15.8126Z" fill="#3B42F8"/>
<path fill-rule="evenodd" clip-rule="evenodd" d="M222.167 40.4039C221.79 43.0475 219.265 45.2986 216.362 44.8274C213.837 44.4479 211.495 42.0005 211.963 38.8857C212.341 36.3468 214.774 34.0826 217.872 34.5538C220.501 34.9333 222.557 37.2891 222.18 40.3908L222.167 40.4039ZM216.076 33.8078C213.082 34.2789 210.74 36.9226 211.208 40.5871C211.586 43.5972 214.488 46.1493 218.054 45.5865C220.957 45.1154 223.495 42.2885 222.922 38.7025C222.453 35.6924 219.733 33.2319 216.076 33.8078Z" fill="#3B42F8"/>
<path fill-rule="evenodd" clip-rule="evenodd" d="M50.5117 15.8126C52.9455 15.8126 57.1624 15.9042 59.2318 15.8126C59.6092 15.1582 60.3511 13.4568 60.4552 12.6978H53.9867C52.9585 12.6978 53.336 12.881 52.2037 14.1112C51.8262 14.4907 51.7351 14.674 51.3577 14.9619C51.0714 15.2498 50.7069 15.433 50.5117 15.8126Z" fill="#3B42F8"/>
<path fill-rule="evenodd" clip-rule="evenodd" d="M45.2536 25.0393C46.9455 24.7513 48.8197 24.1886 50.3164 23.6258C51.2535 23.2463 54.0648 21.9245 54.4422 21.1785H43.7568L45.3447 24.9477L45.2536 25.0393Z" fill="#3B42F8"/>
<path fill-rule="evenodd" clip-rule="evenodd" d="M31.1058 4.68813H44.0427C43.9516 4.12537 43.8605 3.27469 43.5742 2.89515C41.2315 2.71193 35.8953 2.89515 32.8888 2.89515C31.8606 2.89515 32.0428 2.71193 31.6654 3.45791C31.4832 3.83745 31.1969 4.3086 31.0146 4.68813H31.1058Z" fill="#3B42F8"/>
<path fill-rule="evenodd" clip-rule="evenodd" d="M22.763 20.1444H30.1685L28.854 16.938H24.0775C23.7912 17.5007 22.8541 19.7649 22.6719 20.1444H22.763Z" fill="#3B42F8"/>
<path fill-rule="evenodd" clip-rule="evenodd" d="M32.7064 1.6781H43.1965C42.4416 -0.298103 40.6716 0.081433 39.1618 0.081433C37.574 0.081433 34.945 -0.101791 33.5393 0.081433L32.6934 1.58649V1.6781H32.7064Z" fill="#3B42F8"/>
<path fill-rule="evenodd" clip-rule="evenodd" d="M215.516 37.289C216.635 37.289 218.796 36.9095 218.705 38.3229C218.613 39.5532 216.739 39.3568 215.516 39.3568V37.289ZM214.67 37.0011V42.6549H215.516V40.0112C217.299 40.0112 217.39 40.0112 218.509 41.8042C219.069 42.8381 218.887 42.7465 220.006 42.6549C219.629 41.7126 218.783 40.5871 218.041 40.0112C218.418 39.7233 219.824 39.6317 219.629 38.035C219.342 36.3336 217.195 36.6216 215.23 36.7132H214.852V37.0927H214.761L214.67 37.0011Z" fill="#3B42F8"/>
<path fill-rule="evenodd" clip-rule="evenodd" d="M54.5332 11.2841H60.7154C60.7761 9.8358 60.5895 9.08109 60.1557 9.02002H55.5614L54.5332 11.1925V11.2841Z" fill="#3B42F8"/>
<path fill-rule="evenodd" clip-rule="evenodd" d="M55.9384 7.89464H60.5327L60.1553 6.19327C60.0642 5.81373 60.1553 5.81373 59.8689 5.72212C59.1141 5.72212 56.7713 5.63051 56.1206 5.81373L55.7432 7.88155V7.97316L55.9254 7.88155L55.9384 7.89464Z" fill="#3B42F8"/>
<path fill-rule="evenodd" clip-rule="evenodd" d="M56.3157 4.59669H59.5955C59.4133 3.94232 58.9448 3.27486 58.6584 2.80371H56.2246L56.3157 4.59669Z" fill="#3B42F8"/>
<path fill-rule="evenodd" clip-rule="evenodd" d="M209.139 87.7019H211.39L211.481 85.4377H209.139V87.7019Z" fill="#3B42F8"/>
</svg>
