<svg width="82" height="68" viewBox="0 0 82 68" fill="none" xmlns="http://www.w3.org/2000/svg">
<path d="M20.5 34C20.5 41.5004 26.6295 47.6 34.1667 47.6C40.1834 47.6 45.2435 43.6866 47.0646 38.3044L54.6632 33.915L54.6667 34C54.6667 45.2676 45.4895 54.4 34.1667 54.4C22.8438 54.4 13.6667 45.2676 13.6667 34C13.6667 22.7324 22.8438 13.6 34.1667 13.6C37.8703 13.6 41.3348 14.5928 44.3313 16.2996L36.7804 20.6618C35.9331 20.4986 35.0618 20.4 34.1667 20.4C26.6295 20.4 20.5 26.4996 20.5 34ZM34.1667 27.2C30.3913 27.2 27.3333 30.2464 27.3333 34C27.3333 37.7536 30.3913 40.8 34.1667 40.8C37.9421 40.8 41 37.7536 41 34L40.9932 33.949L52.4732 27.319C55.8078 25.398 61.7118 26.1766 65.1524 27.8596L82 18.1254L71.2102 12.7908L71.7876 0.442L54.8922 10.2C54.653 14.0114 52.3843 19.5024 49.0667 21.4234L37.5082 28.101C36.5173 27.5468 35.3864 27.2 34.1667 27.2ZM61.4829 33.6974L61.5 34C61.5 48.9974 49.2376 61.2 34.1667 61.2C19.0958 61.2 6.83333 48.9974 6.83333 34C6.83333 19.0026 19.0958 6.8 34.1667 6.8C39.2062 6.8 43.9144 8.1872 47.9734 10.5638C49.1146 8.5714 49.4358 5.3142 48.4723 3.1518C44.116 1.1492 39.2814 0 34.1667 0C15.2964 0 0 15.2218 0 34C0 52.7782 15.2964 68 34.1667 68C52.0461 68 66.6968 54.3286 68.1864 36.9172C67.158 35.275 64.5443 33.3098 61.4829 33.6974Z" fill="white"/>
</svg>
