<svg width="54" height="86" viewBox="0 0 54 86" fill="none" xmlns="http://www.w3.org/2000/svg">
<path d="M27 0C12.0921 0 0 11.2302 0 25.0833C0 38.9365 12.0921 50.1667 27 50.1667C41.9079 50.1667 54 38.9365 54 25.0833C54 11.2302 41.9079 0 27 0ZM27 43C16.3466 43 7.71429 34.9769 7.71429 25.0833C7.71429 15.1897 16.3466 7.16667 27 7.16667C37.6534 7.16667 46.2857 15.1897 46.2857 25.0833C46.2857 34.9769 37.6534 43 27 43ZM32.724 27.5379L38.5714 22.317L30.537 21.2886L27 14.5089L23.463 21.2886L15.4286 22.317L21.276 27.5379L19.8527 34.9554L27 31.4007L34.1511 34.9554L32.724 27.5379ZM42.4286 53.9292V86L27.1659 75.25L11.5714 86V53.9292C13.9976 55.0543 16.5819 55.9287 19.2857 56.502V73.7916L23.1429 71.4409V57.1219C24.408 57.2545 25.6963 57.3333 27 57.3333C28.3037 57.3333 29.592 57.2545 30.8571 57.1219V71.4409L34.7143 73.7916V56.502C37.422 55.9287 40.0024 55.0543 42.4286 53.9292Z" fill="white"/>
</svg>
